<svg xmlns="http://www.w3.org/2000/svg" viewBox="0 0 1783.5137 514.8882"><path d="M84.3379,675.9746V168.2378H299.59q35.03,0,64.3609,14.3022a165.9624,165.9624,0,0,1,51.1313,38.6167A184.7456,184.7456,0,0,1,449.05,275.5059a162.6222,162.6222,0,0,1,12.1572,61.5009,174.7923,174.7923,0,0,1-20.0234,81.524,171.3554,171.3554,0,0,1-55.0645,62.93q-35.0463,24.3209-82.9541,24.3145H183.0249V675.9746Zm98.687-256.729H297.4443a54.7714,54.7714,0,0,0,32.1807-10.0117q14.2969-10.0056,22.8838-28.9624,8.5818-18.94,8.5815-43.2647,0-26.4484-9.6543-45.0527-9.654-18.5881-25.0293-27.89a63.2289,63.2289,0,0,0-33.2529-9.2964H183.0249Z" transform="translate(-84.3379 -168.2378)" fill="#fff"/><path d="M489.8105,566.5381q0-36.0353,20.3814-63.2324,20.38-27.2022,56.852-42.0469,36.471-14.8331,83.6695-14.8384a329.5241,329.5241,0,0,1,47.9131,3.5757q24.3032,3.5859,42.1919,11.4414V441.5039q0-35.0968-21.0957-54.07-21.1019-18.9565-62.5733-18.9619a161.9317,161.9317,0,0,0-58.64,10.7265q-27.89,10.7271-58.64,31.4654l-30.75-62.9307q37.1748-24.3032,76.16-36.4712a273.4906,273.4906,0,0,1,81.8818-12.1572q80.0823,0,124.7886,39.4883,44.6844,39.4884,44.6953,112.7876V569.12q0,14.8155,5.3633,21.1514,5.3636,6.353,17.5205,7.7549v77.9482q-12.8723,2.1461-23.2412,3.5752a132.4514,132.4514,0,0,1-17.52,1.4307q-28.6106,0-43.2651-12.8721a54.5712,54.5712,0,0,1-18.2354-31.4658l-2.1455-19.3076a163.7817,163.7817,0,0,1-60.7857,48.6279q-36.4709,17.1636-74.3725,17.1631-37.1916,0-66.8638-15.1856-29.6835-15.1845-46.4829-41.6894Q489.805,599.7534,489.8105,566.5381Zm233.13,18.6162a98.77,98.77,0,0,0,12.8726-16.7275q4.9944-8.3628,5.0054-15.3418V516.1221a197.4707,197.4707,0,0,0-37.1861-10.8047,202.629,202.629,0,0,0-37.9013-3.833q-37.1925,0-61.1431,15.6885-23.9677,15.6883-23.9566,41.4882a49.005,49.005,0,0,0,7.8663,26.4932q7.861,12.5536,22.8837,20.2246,15.0177,7.6758,35.7564,7.665a116.235,116.235,0,0,0,42.1919-8.0117Q710.0631,597.021,722.94,585.1543Z" transform="translate(-84.3379 -168.2378)" fill="#fff"/><path d="M1376.5635,304.8262h90.82L1310.7725,675.9746h-80.0938l-62.9316-159.3721-61.5,159.3721h-80.8086L869.541,304.8262h90.1055l111.56,280.4843,43.621-121.1123L1049.751,305.541H1129.13l38.6172,113.3247,39.332-113.3247h79.3789l-65.0762,158.6572L1265.72,585.3105Z" transform="translate(-84.3379 -168.2378)" fill="#fff"/><path d="M1671.9072,683.126q-45.7734,0-82.2383-15.208-36.4716-15.2022-61.8584-42.08a189.1632,189.1632,0,0,1-38.9746-61.5225,203.9415,203.9415,0,0,1,0-146.3882,189.3172,189.3172,0,0,1,38.9746-61.5341q25.3755-26.8675,61.8584-42.0806,36.47-15.2015,82.2383-15.2075,45.7573,0,81.8819,15.2075,36.1025,15.219,61.8584,42.0806a181.9966,181.9966,0,0,1,38.9736,61.5341,209.074,209.074,0,0,1,0,146.3882,184.75,184.75,0,0,1-38.6162,61.5225q-25.393,26.8842-61.8584,42.08Q1717.6763,683.12,1671.9072,683.126Zm-97.9717-191.6641q0,32.2807,12.8721,57.1758,12.873,24.9068,35.041,38.9414,22.1588,14.0287,50.0586,14.0225a88.77,88.77,0,0,0,49.3438-14.38q22.1572-14.3819,35.3984-39.2764,13.2246-24.9067,13.23-57.1758,0-31.5775-13.23-56.83-13.2406-25.2423-35.3984-39.2759a90.4011,90.4011,0,0,0-49.3438-14.0347q-27.8891,0-50.0586,14.3809-22.1733,14.38-35.041,39.2871Q1573.9361,459.2029,1573.9355,491.4619Z" transform="translate(-84.3379 -168.2378)" fill="#fff"/></svg>